<mxfile host="app.diagrams.net" agent="Mozilla/5.0 (Windows NT 10.0; Win64; x64) AppleWebKit/537.36 (KHTML, like Gecko) Chrome/135.0.0.0 Safari/537.36" version="26.2.13">
  <diagram name="Trang-1" id="G9dJDQ_HgkuwMdS5FLWp">
    <mxGraphModel dx="4307" dy="3042" grid="0" gridSize="10" guides="1" tooltips="1" connect="1" arrows="1" fold="1" page="1" pageScale="1" pageWidth="827" pageHeight="1169" math="0" shadow="0">
      <root>
        <mxCell id="0" />
        <mxCell id="1" parent="0" />
        <mxCell id="C_XKMHxiNsWe2GhS1i6V-1" value="" style="rounded=0;whiteSpace=wrap;html=1;" parent="1" vertex="1">
          <mxGeometry x="361" y="247" width="396" height="134" as="geometry" />
        </mxCell>
        <mxCell id="C_XKMHxiNsWe2GhS1i6V-2" value="" style="rounded=0;whiteSpace=wrap;html=1;" parent="1" vertex="1">
          <mxGeometry x="443" y="388" width="396" height="134" as="geometry" />
        </mxCell>
        <mxCell id="C_XKMHxiNsWe2GhS1i6V-3" value="" style="rounded=0;whiteSpace=wrap;html=1;direction=south;" parent="1" vertex="1">
          <mxGeometry x="381" y="532" width="134" height="396" as="geometry" />
        </mxCell>
        <mxCell id="C_XKMHxiNsWe2GhS1i6V-4" value="" style="rounded=0;whiteSpace=wrap;html=1;direction=south;" parent="1" vertex="1">
          <mxGeometry x="414" y="941" width="134" height="396" as="geometry" />
        </mxCell>
        <mxCell id="C_XKMHxiNsWe2GhS1i6V-5" value="" style="rounded=0;whiteSpace=wrap;html=1;direction=south;" parent="1" vertex="1">
          <mxGeometry x="443" y="1345" width="134" height="208" as="geometry" />
        </mxCell>
        <mxCell id="C_XKMHxiNsWe2GhS1i6V-6" value="" style="rounded=0;whiteSpace=wrap;html=1;direction=south;" parent="1" vertex="1">
          <mxGeometry x="826" y="1101" width="501" height="290" as="geometry" />
        </mxCell>
        <mxCell id="C_XKMHxiNsWe2GhS1i6V-9" value="" style="rounded=0;whiteSpace=wrap;html=1;direction=south;" parent="1" vertex="1">
          <mxGeometry x="1370" y="883" width="134" height="554" as="geometry" />
        </mxCell>
        <mxCell id="C_XKMHxiNsWe2GhS1i6V-10" value="" style="rounded=0;whiteSpace=wrap;html=1;direction=south;" parent="1" vertex="1">
          <mxGeometry x="1211" y="539" width="134" height="451" as="geometry" />
        </mxCell>
        <mxCell id="C_XKMHxiNsWe2GhS1i6V-11" value="" style="rounded=0;whiteSpace=wrap;html=1;direction=west;" parent="1" vertex="1">
          <mxGeometry x="945" y="393" width="368" height="134" as="geometry" />
        </mxCell>
        <mxCell id="C_XKMHxiNsWe2GhS1i6V-12" value="" style="rounded=0;whiteSpace=wrap;html=1;direction=south;" parent="1" vertex="1">
          <mxGeometry x="827" y="149" width="207" height="214" as="geometry" />
        </mxCell>
        <mxCell id="C_XKMHxiNsWe2GhS1i6V-13" value="" style="endArrow=none;html=1;rounded=0;strokeWidth=7;" parent="1" edge="1">
          <mxGeometry width="50" height="50" relative="1" as="geometry">
            <mxPoint x="262" y="580" as="sourcePoint" />
            <mxPoint x="262" y="95" as="targetPoint" />
          </mxGeometry>
        </mxCell>
        <mxCell id="C_XKMHxiNsWe2GhS1i6V-14" value="" style="endArrow=none;html=1;rounded=0;strokeWidth=7;" parent="1" edge="1">
          <mxGeometry width="50" height="50" relative="1" as="geometry">
            <mxPoint x="263" y="579" as="sourcePoint" />
            <mxPoint x="419" y="1585" as="targetPoint" />
          </mxGeometry>
        </mxCell>
        <mxCell id="C_XKMHxiNsWe2GhS1i6V-15" value="" style="endArrow=none;html=1;rounded=0;strokeWidth=7;" parent="1" edge="1">
          <mxGeometry width="50" height="50" relative="1" as="geometry">
            <mxPoint x="826" y="95" as="sourcePoint" />
            <mxPoint x="262" y="95" as="targetPoint" />
          </mxGeometry>
        </mxCell>
        <mxCell id="C_XKMHxiNsWe2GhS1i6V-16" value="" style="endArrow=none;html=1;rounded=0;strokeWidth=7;" parent="1" edge="1">
          <mxGeometry width="50" height="50" relative="1" as="geometry">
            <mxPoint x="929" y="69" as="sourcePoint" />
            <mxPoint x="827" y="95" as="targetPoint" />
          </mxGeometry>
        </mxCell>
        <mxCell id="YaNOnSqsw1cUQPxofrCl-2" value="" style="endArrow=none;html=1;rounded=0;strokeWidth=7;" parent="1" edge="1">
          <mxGeometry width="50" height="50" relative="1" as="geometry">
            <mxPoint x="420" y="1582" as="sourcePoint" />
            <mxPoint x="580" y="1582" as="targetPoint" />
          </mxGeometry>
        </mxCell>
        <mxCell id="YaNOnSqsw1cUQPxofrCl-3" value="" style="endArrow=none;html=1;rounded=0;strokeWidth=7;" parent="1" edge="1">
          <mxGeometry width="50" height="50" relative="1" as="geometry">
            <mxPoint x="577" y="1582" as="sourcePoint" />
            <mxPoint x="662" y="1622" as="targetPoint" />
          </mxGeometry>
        </mxCell>
        <mxCell id="YaNOnSqsw1cUQPxofrCl-4" value="" style="endArrow=none;html=1;rounded=0;strokeWidth=7;" parent="1" edge="1">
          <mxGeometry width="50" height="50" relative="1" as="geometry">
            <mxPoint x="701" y="1588" as="sourcePoint" />
            <mxPoint x="943" y="1588" as="targetPoint" />
          </mxGeometry>
        </mxCell>
        <mxCell id="YaNOnSqsw1cUQPxofrCl-5" value="" style="endArrow=none;html=1;rounded=0;strokeWidth=7;" parent="1" edge="1">
          <mxGeometry width="50" height="50" relative="1" as="geometry">
            <mxPoint x="1532" y="1434" as="sourcePoint" />
            <mxPoint x="1532" y="431" as="targetPoint" />
          </mxGeometry>
        </mxCell>
        <mxCell id="YaNOnSqsw1cUQPxofrCl-6" value="" style="endArrow=none;html=1;rounded=0;strokeWidth=7;" parent="1" edge="1">
          <mxGeometry width="50" height="50" relative="1" as="geometry">
            <mxPoint x="947" y="99" as="sourcePoint" />
            <mxPoint x="1535" y="431" as="targetPoint" />
            <Array as="points">
              <mxPoint x="1082" y="99" />
            </Array>
          </mxGeometry>
        </mxCell>
        <mxCell id="YaNOnSqsw1cUQPxofrCl-7" value="" style="endArrow=none;html=1;rounded=0;strokeWidth=7;" parent="1" edge="1">
          <mxGeometry width="50" height="50" relative="1" as="geometry">
            <mxPoint x="1139" y="1589" as="sourcePoint" />
            <mxPoint x="1529" y="1434" as="targetPoint" />
            <Array as="points">
              <mxPoint x="1279" y="1583" />
            </Array>
          </mxGeometry>
        </mxCell>
        <mxCell id="YaNOnSqsw1cUQPxofrCl-8" value="" style="endArrow=none;html=1;rounded=0;strokeWidth=7;" parent="1" edge="1">
          <mxGeometry width="50" height="50" relative="1" as="geometry">
            <mxPoint x="938" y="1585" as="sourcePoint" />
            <mxPoint x="1105" y="1663" as="targetPoint" />
          </mxGeometry>
        </mxCell>
        <mxCell id="uDURItvI0MHjKC3Wzbg2-1" value="Khu D" style="text;html=1;align=center;verticalAlign=middle;resizable=0;points=[];autosize=1;strokeColor=none;fillColor=none;" parent="1" vertex="1">
          <mxGeometry x="910" y="149" width="51" height="26" as="geometry" />
        </mxCell>
        <mxCell id="uDURItvI0MHjKC3Wzbg2-2" value="Khu F" style="text;html=1;align=center;verticalAlign=middle;resizable=0;points=[];autosize=1;strokeColor=none;fillColor=none;" parent="1" vertex="1">
          <mxGeometry x="361" y="247" width="50" height="26" as="geometry" />
        </mxCell>
        <mxCell id="uDURItvI0MHjKC3Wzbg2-3" value="Khu B2" style="text;html=1;align=center;verticalAlign=middle;resizable=0;points=[];autosize=1;strokeColor=none;fillColor=none;" parent="1" vertex="1">
          <mxGeometry x="414" y="941" width="57" height="26" as="geometry" />
        </mxCell>
        <mxCell id="uDURItvI0MHjKC3Wzbg2-4" value="Khu B3" style="text;html=1;align=center;verticalAlign=middle;resizable=0;points=[];autosize=1;strokeColor=none;fillColor=none;" parent="1" vertex="1">
          <mxGeometry x="379" y="532" width="57" height="26" as="geometry" />
        </mxCell>
        <mxCell id="uDURItvI0MHjKC3Wzbg2-5" value="Khu B4" style="text;html=1;align=center;verticalAlign=middle;resizable=0;points=[];autosize=1;strokeColor=none;fillColor=none;" parent="1" vertex="1">
          <mxGeometry x="443" y="388" width="57" height="26" as="geometry" />
        </mxCell>
        <mxCell id="uDURItvI0MHjKC3Wzbg2-6" value="Khu B1" style="text;html=1;align=center;verticalAlign=middle;resizable=0;points=[];autosize=1;strokeColor=none;fillColor=none;" parent="1" vertex="1">
          <mxGeometry x="443" y="1345" width="57" height="26" as="geometry" />
        </mxCell>
        <mxCell id="uDURItvI0MHjKC3Wzbg2-7" value="Khu C2" style="text;html=1;align=center;verticalAlign=middle;resizable=0;points=[];autosize=1;strokeColor=none;fillColor=none;" parent="1" vertex="1">
          <mxGeometry x="945" y="393" width="58" height="26" as="geometry" />
        </mxCell>
        <mxCell id="uDURItvI0MHjKC3Wzbg2-8" value="Khu C1" style="text;html=1;align=center;verticalAlign=middle;resizable=0;points=[];autosize=1;strokeColor=none;fillColor=none;" parent="1" vertex="1">
          <mxGeometry x="1211" y="964" width="58" height="26" as="geometry" />
        </mxCell>
        <mxCell id="uDURItvI0MHjKC3Wzbg2-9" value="Khu E" style="text;html=1;align=center;verticalAlign=middle;resizable=0;points=[];autosize=1;strokeColor=none;fillColor=none;" parent="1" vertex="1">
          <mxGeometry x="1370" y="883" width="51" height="26" as="geometry" />
        </mxCell>
        <mxCell id="uDURItvI0MHjKC3Wzbg2-10" value="Khu A" style="text;html=1;align=center;verticalAlign=middle;resizable=0;points=[];autosize=1;strokeColor=none;fillColor=none;" parent="1" vertex="1">
          <mxGeometry x="827" y="1101" width="50" height="26" as="geometry" />
        </mxCell>
        <mxCell id="uDURItvI0MHjKC3Wzbg2-11" value="SV" style="rounded=0;whiteSpace=wrap;html=1;fillColor=#FF0000;" parent="1" vertex="1">
          <mxGeometry x="872" y="315" width="38" height="22" as="geometry" />
        </mxCell>
        <mxCell id="uDURItvI0MHjKC3Wzbg2-12" value="" style="fontColor=#0066CC;verticalAlign=top;verticalLabelPosition=bottom;labelPosition=center;align=center;html=1;outlineConnect=0;fillColor=#CCCCCC;strokeColor=#6881B3;gradientColor=none;gradientDirection=north;strokeWidth=2;shape=mxgraph.networks.switch;" parent="1" vertex="1">
          <mxGeometry x="831" y="350" width="41" height="13" as="geometry" />
        </mxCell>
        <mxCell id="uDURItvI0MHjKC3Wzbg2-71" style="edgeStyle=orthogonalEdgeStyle;rounded=0;orthogonalLoop=1;jettySize=auto;html=1;exitX=0.5;exitY=0;exitDx=0;exitDy=0;exitPerimeter=0;" parent="1" source="uDURItvI0MHjKC3Wzbg2-13" target="uDURItvI0MHjKC3Wzbg2-69" edge="1">
          <mxGeometry relative="1" as="geometry" />
        </mxCell>
        <mxCell id="uDURItvI0MHjKC3Wzbg2-72" style="edgeStyle=orthogonalEdgeStyle;rounded=0;orthogonalLoop=1;jettySize=auto;html=1;exitX=1;exitY=0.5;exitDx=0;exitDy=0;exitPerimeter=0;entryX=0.5;entryY=0;entryDx=0;entryDy=0;" parent="1" source="uDURItvI0MHjKC3Wzbg2-13" target="uDURItvI0MHjKC3Wzbg2-26" edge="1">
          <mxGeometry relative="1" as="geometry" />
        </mxCell>
        <mxCell id="uDURItvI0MHjKC3Wzbg2-13" value="" style="fontColor=#0066CC;verticalAlign=top;verticalLabelPosition=bottom;labelPosition=center;align=center;html=1;outlineConnect=0;fillColor=#CCCCCC;strokeColor=#6881B3;gradientColor=none;gradientDirection=north;strokeWidth=2;shape=mxgraph.networks.switch;rotation=-90;" parent="1" vertex="1">
          <mxGeometry x="1006" y="234" width="41" height="13" as="geometry" />
        </mxCell>
        <mxCell id="uDURItvI0MHjKC3Wzbg2-56" style="edgeStyle=orthogonalEdgeStyle;rounded=0;orthogonalLoop=1;jettySize=auto;html=1;exitX=0.5;exitY=0;exitDx=0;exitDy=0;exitPerimeter=0;entryX=0.5;entryY=0;entryDx=0;entryDy=0;" parent="1" source="uDURItvI0MHjKC3Wzbg2-14" target="uDURItvI0MHjKC3Wzbg2-37" edge="1">
          <mxGeometry relative="1" as="geometry" />
        </mxCell>
        <mxCell id="uDURItvI0MHjKC3Wzbg2-57" style="edgeStyle=orthogonalEdgeStyle;rounded=0;orthogonalLoop=1;jettySize=auto;html=1;exitX=0.5;exitY=0;exitDx=0;exitDy=0;exitPerimeter=0;entryX=0.5;entryY=0;entryDx=0;entryDy=0;" parent="1" source="uDURItvI0MHjKC3Wzbg2-14" target="uDURItvI0MHjKC3Wzbg2-36" edge="1">
          <mxGeometry relative="1" as="geometry" />
        </mxCell>
        <mxCell id="uDURItvI0MHjKC3Wzbg2-14" value="" style="fontColor=#0066CC;verticalAlign=top;verticalLabelPosition=bottom;labelPosition=center;align=center;html=1;outlineConnect=0;fillColor=#CCCCCC;strokeColor=#6881B3;gradientColor=none;gradientDirection=north;strokeWidth=2;shape=mxgraph.networks.switch;rotation=-90;" parent="1" vertex="1">
          <mxGeometry x="730" y="265" width="41" height="13" as="geometry" />
        </mxCell>
        <mxCell id="uDURItvI0MHjKC3Wzbg2-15" value="" style="fontColor=#0066CC;verticalAlign=top;verticalLabelPosition=bottom;labelPosition=center;align=center;html=1;outlineConnect=0;fillColor=#CCCCCC;strokeColor=#6881B3;gradientColor=none;gradientDirection=north;strokeWidth=2;shape=mxgraph.networks.switch;" parent="1" vertex="1">
          <mxGeometry x="915" y="350" width="41" height="13" as="geometry" />
        </mxCell>
        <mxCell id="uDURItvI0MHjKC3Wzbg2-65" style="edgeStyle=orthogonalEdgeStyle;rounded=0;orthogonalLoop=1;jettySize=auto;html=1;exitX=0.5;exitY=0;exitDx=0;exitDy=0;exitPerimeter=0;entryX=0.5;entryY=1;entryDx=0;entryDy=0;" parent="1" source="uDURItvI0MHjKC3Wzbg2-16" target="uDURItvI0MHjKC3Wzbg2-39" edge="1">
          <mxGeometry relative="1" as="geometry" />
        </mxCell>
        <mxCell id="uDURItvI0MHjKC3Wzbg2-66" style="edgeStyle=orthogonalEdgeStyle;rounded=0;orthogonalLoop=1;jettySize=auto;html=1;exitX=0.5;exitY=0;exitDx=0;exitDy=0;exitPerimeter=0;entryX=0.5;entryY=1;entryDx=0;entryDy=0;" parent="1" source="uDURItvI0MHjKC3Wzbg2-16" target="uDURItvI0MHjKC3Wzbg2-40" edge="1">
          <mxGeometry relative="1" as="geometry" />
        </mxCell>
        <mxCell id="uDURItvI0MHjKC3Wzbg2-67" style="edgeStyle=orthogonalEdgeStyle;rounded=0;orthogonalLoop=1;jettySize=auto;html=1;exitX=0;exitY=0.5;exitDx=0;exitDy=0;exitPerimeter=0;entryX=0.5;entryY=1;entryDx=0;entryDy=0;" parent="1" source="uDURItvI0MHjKC3Wzbg2-16" target="uDURItvI0MHjKC3Wzbg2-41" edge="1">
          <mxGeometry relative="1" as="geometry" />
        </mxCell>
        <mxCell id="uDURItvI0MHjKC3Wzbg2-16" value="" style="fontColor=#0066CC;verticalAlign=top;verticalLabelPosition=bottom;labelPosition=center;align=center;html=1;outlineConnect=0;fillColor=#CCCCCC;strokeColor=#6881B3;gradientColor=none;gradientDirection=north;strokeWidth=2;shape=mxgraph.networks.switch;rotation=-90;" parent="1" vertex="1">
          <mxGeometry x="521" y="1132.5" width="41" height="13" as="geometry" />
        </mxCell>
        <mxCell id="uDURItvI0MHjKC3Wzbg2-61" style="edgeStyle=orthogonalEdgeStyle;rounded=0;orthogonalLoop=1;jettySize=auto;html=1;exitX=0.5;exitY=0;exitDx=0;exitDy=0;exitPerimeter=0;entryX=0.5;entryY=1;entryDx=0;entryDy=0;" parent="1" source="uDURItvI0MHjKC3Wzbg2-17" target="uDURItvI0MHjKC3Wzbg2-35" edge="1">
          <mxGeometry relative="1" as="geometry" />
        </mxCell>
        <mxCell id="uDURItvI0MHjKC3Wzbg2-62" style="edgeStyle=orthogonalEdgeStyle;rounded=0;orthogonalLoop=1;jettySize=auto;html=1;exitX=0;exitY=0.5;exitDx=0;exitDy=0;exitPerimeter=0;entryX=0.5;entryY=1;entryDx=0;entryDy=0;" parent="1" source="uDURItvI0MHjKC3Wzbg2-17" target="uDURItvI0MHjKC3Wzbg2-33" edge="1">
          <mxGeometry relative="1" as="geometry" />
        </mxCell>
        <mxCell id="uDURItvI0MHjKC3Wzbg2-63" style="edgeStyle=orthogonalEdgeStyle;rounded=0;orthogonalLoop=1;jettySize=auto;html=1;exitX=0;exitY=0.5;exitDx=0;exitDy=0;exitPerimeter=0;entryX=0.5;entryY=1;entryDx=0;entryDy=0;" parent="1" source="uDURItvI0MHjKC3Wzbg2-17" target="uDURItvI0MHjKC3Wzbg2-32" edge="1">
          <mxGeometry relative="1" as="geometry" />
        </mxCell>
        <mxCell id="uDURItvI0MHjKC3Wzbg2-17" value="" style="fontColor=#0066CC;verticalAlign=top;verticalLabelPosition=bottom;labelPosition=center;align=center;html=1;outlineConnect=0;fillColor=#CCCCCC;strokeColor=#6881B3;gradientColor=none;gradientDirection=north;strokeWidth=2;shape=mxgraph.networks.switch;" parent="1" vertex="1">
          <mxGeometry x="620.5" y="509" width="41" height="13" as="geometry" />
        </mxCell>
        <mxCell id="uDURItvI0MHjKC3Wzbg2-48" style="edgeStyle=orthogonalEdgeStyle;rounded=0;orthogonalLoop=1;jettySize=auto;html=1;exitX=0.5;exitY=0;exitDx=0;exitDy=0;exitPerimeter=0;entryX=0.5;entryY=1;entryDx=0;entryDy=0;" parent="1" source="uDURItvI0MHjKC3Wzbg2-18" target="uDURItvI0MHjKC3Wzbg2-31" edge="1">
          <mxGeometry relative="1" as="geometry" />
        </mxCell>
        <mxCell id="uDURItvI0MHjKC3Wzbg2-49" style="edgeStyle=orthogonalEdgeStyle;rounded=0;orthogonalLoop=1;jettySize=auto;html=1;exitX=1;exitY=0.5;exitDx=0;exitDy=0;exitPerimeter=0;entryX=0.5;entryY=1;entryDx=0;entryDy=0;" parent="1" source="uDURItvI0MHjKC3Wzbg2-18" target="uDURItvI0MHjKC3Wzbg2-44" edge="1">
          <mxGeometry relative="1" as="geometry" />
        </mxCell>
        <mxCell id="uDURItvI0MHjKC3Wzbg2-50" style="edgeStyle=orthogonalEdgeStyle;rounded=0;orthogonalLoop=1;jettySize=auto;html=1;exitX=1;exitY=0.5;exitDx=0;exitDy=0;exitPerimeter=0;entryX=0.5;entryY=1;entryDx=0;entryDy=0;" parent="1" source="uDURItvI0MHjKC3Wzbg2-18" target="uDURItvI0MHjKC3Wzbg2-45" edge="1">
          <mxGeometry relative="1" as="geometry" />
        </mxCell>
        <mxCell id="uDURItvI0MHjKC3Wzbg2-18" value="" style="fontColor=#0066CC;verticalAlign=top;verticalLabelPosition=bottom;labelPosition=center;align=center;html=1;outlineConnect=0;fillColor=#CCCCCC;strokeColor=#6881B3;gradientColor=none;gradientDirection=north;strokeWidth=2;shape=mxgraph.networks.switch;" parent="1" vertex="1">
          <mxGeometry x="1073" y="514" width="41" height="13" as="geometry" />
        </mxCell>
        <mxCell id="uDURItvI0MHjKC3Wzbg2-52" style="edgeStyle=orthogonalEdgeStyle;rounded=0;orthogonalLoop=1;jettySize=auto;html=1;exitX=0.5;exitY=0;exitDx=0;exitDy=0;exitPerimeter=0;entryX=0.5;entryY=0;entryDx=0;entryDy=0;" parent="1" source="uDURItvI0MHjKC3Wzbg2-20" target="uDURItvI0MHjKC3Wzbg2-42" edge="1">
          <mxGeometry relative="1" as="geometry" />
        </mxCell>
        <mxCell id="uDURItvI0MHjKC3Wzbg2-53" style="edgeStyle=orthogonalEdgeStyle;rounded=0;orthogonalLoop=1;jettySize=auto;html=1;exitX=0.5;exitY=0;exitDx=0;exitDy=0;exitPerimeter=0;entryX=0.5;entryY=0;entryDx=0;entryDy=0;" parent="1" source="uDURItvI0MHjKC3Wzbg2-20" target="uDURItvI0MHjKC3Wzbg2-43" edge="1">
          <mxGeometry relative="1" as="geometry" />
        </mxCell>
        <mxCell id="uDURItvI0MHjKC3Wzbg2-54" style="edgeStyle=orthogonalEdgeStyle;rounded=0;orthogonalLoop=1;jettySize=auto;html=1;exitX=0;exitY=0.5;exitDx=0;exitDy=0;exitPerimeter=0;entryX=0.5;entryY=1;entryDx=0;entryDy=0;" parent="1" source="uDURItvI0MHjKC3Wzbg2-20" target="uDURItvI0MHjKC3Wzbg2-46" edge="1">
          <mxGeometry relative="1" as="geometry" />
        </mxCell>
        <mxCell id="uDURItvI0MHjKC3Wzbg2-55" style="edgeStyle=orthogonalEdgeStyle;rounded=0;orthogonalLoop=1;jettySize=auto;html=1;exitX=0;exitY=0.5;exitDx=0;exitDy=0;exitPerimeter=0;entryX=0.5;entryY=1;entryDx=0;entryDy=0;" parent="1" source="uDURItvI0MHjKC3Wzbg2-20" target="uDURItvI0MHjKC3Wzbg2-47" edge="1">
          <mxGeometry relative="1" as="geometry">
            <Array as="points">
              <mxPoint x="1281" y="1108" />
              <mxPoint x="1281" y="1273" />
            </Array>
          </mxGeometry>
        </mxCell>
        <mxCell id="uDURItvI0MHjKC3Wzbg2-20" value="" style="fontColor=#0066CC;verticalAlign=top;verticalLabelPosition=bottom;labelPosition=center;align=center;html=1;outlineConnect=0;fillColor=#CCCCCC;strokeColor=#6881B3;gradientColor=none;gradientDirection=north;strokeWidth=2;shape=mxgraph.networks.switch;rotation=-180;" parent="1" vertex="1">
          <mxGeometry x="1088" y="1101" width="41" height="13" as="geometry" />
        </mxCell>
        <mxCell id="uDURItvI0MHjKC3Wzbg2-21" style="edgeStyle=orthogonalEdgeStyle;rounded=0;orthogonalLoop=1;jettySize=auto;html=1;exitX=0.75;exitY=1;exitDx=0;exitDy=0;entryX=0;entryY=0.5;entryDx=0;entryDy=0;entryPerimeter=0;" parent="1" source="uDURItvI0MHjKC3Wzbg2-11" target="uDURItvI0MHjKC3Wzbg2-15" edge="1">
          <mxGeometry relative="1" as="geometry">
            <Array as="points">
              <mxPoint x="903" y="337" />
              <mxPoint x="903" y="357" />
            </Array>
          </mxGeometry>
        </mxCell>
        <mxCell id="uDURItvI0MHjKC3Wzbg2-22" style="edgeStyle=orthogonalEdgeStyle;rounded=0;orthogonalLoop=1;jettySize=auto;html=1;exitX=0.25;exitY=1;exitDx=0;exitDy=0;entryX=1;entryY=0.5;entryDx=0;entryDy=0;entryPerimeter=0;" parent="1" source="uDURItvI0MHjKC3Wzbg2-11" target="uDURItvI0MHjKC3Wzbg2-12" edge="1">
          <mxGeometry relative="1" as="geometry">
            <Array as="points">
              <mxPoint x="881" y="357" />
            </Array>
          </mxGeometry>
        </mxCell>
        <mxCell id="uDURItvI0MHjKC3Wzbg2-23" style="edgeStyle=orthogonalEdgeStyle;rounded=0;orthogonalLoop=1;jettySize=auto;html=1;exitX=0.5;exitY=0;exitDx=0;exitDy=0;exitPerimeter=0;entryX=0;entryY=0.5;entryDx=0;entryDy=0;entryPerimeter=0;" parent="1" source="uDURItvI0MHjKC3Wzbg2-15" target="uDURItvI0MHjKC3Wzbg2-13" edge="1">
          <mxGeometry relative="1" as="geometry">
            <Array as="points">
              <mxPoint x="954" y="350" />
              <mxPoint x="954" y="306" />
            </Array>
          </mxGeometry>
        </mxCell>
        <mxCell id="uDURItvI0MHjKC3Wzbg2-24" style="edgeStyle=orthogonalEdgeStyle;rounded=0;orthogonalLoop=1;jettySize=auto;html=1;exitX=0.05;exitY=0.05;exitDx=0;exitDy=0;exitPerimeter=0;entryX=0.5;entryY=1;entryDx=0;entryDy=0;entryPerimeter=0;" parent="1" source="uDURItvI0MHjKC3Wzbg2-12" target="uDURItvI0MHjKC3Wzbg2-14" edge="1">
          <mxGeometry relative="1" as="geometry" />
        </mxCell>
        <mxCell id="uDURItvI0MHjKC3Wzbg2-25" style="edgeStyle=orthogonalEdgeStyle;rounded=0;orthogonalLoop=1;jettySize=auto;html=1;exitX=0.5;exitY=1;exitDx=0;exitDy=0;exitPerimeter=0;entryX=0.5;entryY=1;entryDx=0;entryDy=0;entryPerimeter=0;" parent="1" source="uDURItvI0MHjKC3Wzbg2-15" target="uDURItvI0MHjKC3Wzbg2-18" edge="1">
          <mxGeometry relative="1" as="geometry">
            <Array as="points">
              <mxPoint x="936" y="547" />
              <mxPoint x="1094" y="547" />
            </Array>
          </mxGeometry>
        </mxCell>
        <mxCell id="uDURItvI0MHjKC3Wzbg2-26" value="AP" style="rounded=0;whiteSpace=wrap;html=1;fillColor=#CCFFCC;" parent="1" vertex="1">
          <mxGeometry x="872" y="229.5" width="38" height="22" as="geometry" />
        </mxCell>
        <mxCell id="uDURItvI0MHjKC3Wzbg2-31" value="AP" style="rounded=0;whiteSpace=wrap;html=1;fillColor=#CCFFCC;" parent="1" vertex="1">
          <mxGeometry x="1107" y="440" width="38" height="22" as="geometry" />
        </mxCell>
        <mxCell id="uDURItvI0MHjKC3Wzbg2-32" value="AP" style="rounded=0;whiteSpace=wrap;html=1;fillColor=#CCFFCC;rotation=-90;" parent="1" vertex="1">
          <mxGeometry x="433" y="814" width="38" height="22" as="geometry" />
        </mxCell>
        <mxCell id="uDURItvI0MHjKC3Wzbg2-33" value="AP" style="rounded=0;whiteSpace=wrap;html=1;fillColor=#CCFFCC;rotation=-90;" parent="1" vertex="1">
          <mxGeometry x="433" y="627" width="38" height="22" as="geometry" />
        </mxCell>
        <mxCell id="uDURItvI0MHjKC3Wzbg2-35" value="AP" style="rounded=0;whiteSpace=wrap;html=1;fillColor=#CCFFCC;" parent="1" vertex="1">
          <mxGeometry x="622" y="444" width="38" height="22" as="geometry" />
        </mxCell>
        <mxCell id="uDURItvI0MHjKC3Wzbg2-36" value="AP" style="rounded=0;whiteSpace=wrap;html=1;fillColor=#CCFFCC;" parent="1" vertex="1">
          <mxGeometry x="648" y="303" width="38" height="22" as="geometry" />
        </mxCell>
        <mxCell id="uDURItvI0MHjKC3Wzbg2-37" value="AP" style="rounded=0;whiteSpace=wrap;html=1;fillColor=#CCFFCC;" parent="1" vertex="1">
          <mxGeometry x="405" y="303" width="38" height="22" as="geometry" />
        </mxCell>
        <mxCell id="uDURItvI0MHjKC3Wzbg2-39" value="AP" style="rounded=0;whiteSpace=wrap;html=1;fillColor=#CCFFCC;rotation=-90;" parent="1" vertex="1">
          <mxGeometry x="462" y="1015" width="38" height="22" as="geometry" />
        </mxCell>
        <mxCell id="uDURItvI0MHjKC3Wzbg2-40" value="AP" style="rounded=0;whiteSpace=wrap;html=1;fillColor=#CCFFCC;rotation=-90;" parent="1" vertex="1">
          <mxGeometry x="462" y="1235" width="38" height="22" as="geometry" />
        </mxCell>
        <mxCell id="uDURItvI0MHjKC3Wzbg2-41" value="AP" style="rounded=0;whiteSpace=wrap;html=1;fillColor=#CCFFCC;rotation=-90;" parent="1" vertex="1">
          <mxGeometry x="488" y="1437" width="38" height="22" as="geometry" />
        </mxCell>
        <mxCell id="uDURItvI0MHjKC3Wzbg2-42" value="AP" style="rounded=0;whiteSpace=wrap;html=1;fillColor=#CCFFCC;" parent="1" vertex="1">
          <mxGeometry x="955" y="1238" width="38" height="22" as="geometry" />
        </mxCell>
        <mxCell id="uDURItvI0MHjKC3Wzbg2-43" value="AP" style="rounded=0;whiteSpace=wrap;html=1;fillColor=#CCFFCC;" parent="1" vertex="1">
          <mxGeometry x="1195" y="1238" width="38" height="22" as="geometry" />
        </mxCell>
        <mxCell id="uDURItvI0MHjKC3Wzbg2-44" value="AP" style="rounded=0;whiteSpace=wrap;html=1;fillColor=#CCFFCC;rotation=90;" parent="1" vertex="1">
          <mxGeometry x="1261" y="623" width="38" height="22" as="geometry" />
        </mxCell>
        <mxCell id="uDURItvI0MHjKC3Wzbg2-45" value="AP" style="rounded=0;whiteSpace=wrap;html=1;fillColor=#CCFFCC;rotation=90;" parent="1" vertex="1">
          <mxGeometry x="1261" y="863" width="38" height="22" as="geometry" />
        </mxCell>
        <mxCell id="uDURItvI0MHjKC3Wzbg2-46" value="AP" style="rounded=0;whiteSpace=wrap;html=1;fillColor=#CCFFCC;rotation=90;" parent="1" vertex="1">
          <mxGeometry x="1424" y="1008" width="38" height="22" as="geometry" />
        </mxCell>
        <mxCell id="uDURItvI0MHjKC3Wzbg2-47" value="AP" style="rounded=0;whiteSpace=wrap;html=1;fillColor=#CCFFCC;rotation=90;" parent="1" vertex="1">
          <mxGeometry x="1418" y="1262" width="38" height="22" as="geometry" />
        </mxCell>
        <mxCell id="uDURItvI0MHjKC3Wzbg2-51" style="edgeStyle=orthogonalEdgeStyle;rounded=0;orthogonalLoop=1;jettySize=auto;html=1;exitX=0.5;exitY=1;exitDx=0;exitDy=0;exitPerimeter=0;entryX=0.5;entryY=1;entryDx=0;entryDy=0;entryPerimeter=0;" parent="1" source="uDURItvI0MHjKC3Wzbg2-15" target="uDURItvI0MHjKC3Wzbg2-20" edge="1">
          <mxGeometry relative="1" as="geometry">
            <Array as="points">
              <mxPoint x="935" y="548" />
              <mxPoint x="1192" y="548" />
              <mxPoint x="1192" y="1084" />
              <mxPoint x="1109" y="1084" />
            </Array>
          </mxGeometry>
        </mxCell>
        <mxCell id="uDURItvI0MHjKC3Wzbg2-59" style="edgeStyle=orthogonalEdgeStyle;rounded=0;orthogonalLoop=1;jettySize=auto;html=1;exitX=0.5;exitY=1;exitDx=0;exitDy=0;exitPerimeter=0;entryX=0.5;entryY=1;entryDx=0;entryDy=0;entryPerimeter=0;" parent="1" source="uDURItvI0MHjKC3Wzbg2-12" target="uDURItvI0MHjKC3Wzbg2-17" edge="1">
          <mxGeometry relative="1" as="geometry" />
        </mxCell>
        <mxCell id="uDURItvI0MHjKC3Wzbg2-64" style="edgeStyle=orthogonalEdgeStyle;rounded=0;orthogonalLoop=1;jettySize=auto;html=1;exitX=0.5;exitY=1;exitDx=0;exitDy=0;exitPerimeter=0;entryX=0.5;entryY=1;entryDx=0;entryDy=0;entryPerimeter=0;" parent="1" source="uDURItvI0MHjKC3Wzbg2-12" target="uDURItvI0MHjKC3Wzbg2-16" edge="1">
          <mxGeometry relative="1" as="geometry">
            <Array as="points">
              <mxPoint x="852" y="542" />
              <mxPoint x="568" y="542" />
              <mxPoint x="568" y="1139" />
            </Array>
          </mxGeometry>
        </mxCell>
        <mxCell id="uDURItvI0MHjKC3Wzbg2-69" value="AP" style="rounded=0;whiteSpace=wrap;html=1;fillColor=#CCFFCC;" parent="1" vertex="1">
          <mxGeometry x="952" y="229.5" width="38" height="22" as="geometry" />
        </mxCell>
        <mxCell id="etEyyUJC6Mu5McDCDdHk-1" value="Text" style="text;html=1;align=center;verticalAlign=middle;whiteSpace=wrap;rounded=0;" vertex="1" parent="1">
          <mxGeometry x="839" y="-138" width="60" height="30" as="geometry" />
        </mxCell>
        <mxCell id="etEyyUJC6Mu5McDCDdHk-2" value="Text" style="text;html=1;align=center;verticalAlign=middle;whiteSpace=wrap;rounded=0;" vertex="1" parent="1">
          <mxGeometry x="-209" y="717" width="60" height="30" as="geometry" />
        </mxCell>
        <mxCell id="etEyyUJC6Mu5McDCDdHk-3" value="Text" style="text;html=1;align=center;verticalAlign=middle;whiteSpace=wrap;rounded=0;" vertex="1" parent="1">
          <mxGeometry x="771" y="1933" width="60" height="30" as="geometry" />
        </mxCell>
        <mxCell id="etEyyUJC6Mu5McDCDdHk-4" value="Text" style="text;html=1;align=center;verticalAlign=middle;whiteSpace=wrap;rounded=0;" vertex="1" parent="1">
          <mxGeometry x="2377" y="733" width="60" height="30" as="geometry" />
        </mxCell>
      </root>
    </mxGraphModel>
  </diagram>
</mxfile>
